<?xml version="1.0" standalone="no"?>
<!DOCTYPE svg PUBLIC "-//W3C//DTD SVG 20010904//EN"
 "http://www.w3.org/TR/2001/REC-SVG-20010904/DTD/svg10.dtd">
<svg version="1.0" xmlns="http://www.w3.org/2000/svg"
 width="260.000000pt" height="260.000000pt" viewBox="0 0 260.000000 260.000000"
 preserveAspectRatio="xMidYMid meet">
<metadata>
Created by potrace 1.11, written by Peter Selinger 2001-2013
</metadata>
<g transform="translate(0.000000,260.000000) scale(0.100000,-0.100000)"
fill="#000000" stroke="none">
<path d="M540 2430 c0 -5 -18 -10 -40 -10 -22 0 -40 -4 -40 -10 0 -5 -13 -10
-30 -10 -16 0 -30 -4 -30 -10 0 -5 -8 -10 -18 -10 -10 0 -24 -9 -32 -20 -8
-11 -20 -20 -27 -20 -16 0 -183 -165 -183 -181 0 -6 -13 -24 -30 -39 -16 -15
-30 -35 -30 -44 0 -9 -4 -16 -10 -16 -5 0 -10 -9 -10 -20 0 -11 -4 -20 -10
-20 -5 0 -10 -9 -10 -20 0 -11 -4 -20 -10 -20 -6 0 -10 -28 -10 -65 0 -37 -4
-65 -10 -65 -6 0 -10 -33 -10 -80 0 -47 4 -80 10 -80 6 0 10 -27 10 -60 0 -33
4 -60 10 -60 6 0 10 -13 10 -30 0 -16 5 -30 10 -30 6 0 10 -9 10 -20 0 -11 5
-20 10 -20 6 0 10 -13 10 -28 0 -16 8 -34 20 -42 11 -8 20 -21 20 -28 0 -7 18
-31 40 -52 22 -21 40 -43 40 -49 0 -14 166 -181 180 -181 6 0 38 -27 70 -60
32 -33 64 -60 70 -60 6 0 33 -22 60 -50 27 -27 56 -50 65 -50 9 0 34 -18 55
-40 21 -22 43 -40 50 -40 11 0 60 -45 60 -55 0 -11 28 -35 40 -35 6 0 38 -27
70 -60 32 -33 64 -60 70 -60 6 0 27 -16 46 -35 l35 -36 -30 -28 c-17 -16 -31
-34 -31 -41 0 -6 -18 -29 -40 -50 -26 -25 -40 -47 -40 -64 0 -14 5 -26 10 -26
6 0 10 -13 10 -30 l0 -30 80 0 c44 0 80 -4 80 -8 0 -4 -9 -14 -20 -22 -11 -8
-20 -22 -20 -32 0 -16 11 -18 100 -18 60 0 100 4 100 10 0 6 7 10 15 10 17 0
105 84 105 100 0 14 147 160 160 160 6 0 38 27 70 60 32 33 64 60 70 60 6 0
29 18 50 40 21 22 44 40 50 40 7 0 25 14 40 30 15 17 33 30 40 30 12 0 40 24
40 35 0 10 28 35 39 35 6 0 11 5 11 10 0 6 7 10 16 10 8 0 33 18 54 40 21 22
44 40 50 40 6 0 33 23 60 50 27 28 54 50 59 50 16 0 241 227 241 243 0 7 9 19
20 27 11 8 20 22 20 32 0 10 5 18 10 18 6 0 10 9 10 20 0 11 5 20 10 20 6 0
10 9 10 20 0 11 5 20 10 20 6 0 10 9 10 20 0 11 5 20 10 20 6 0 10 14 10 30 0
17 5 30 10 30 6 0 10 18 10 40 0 22 5 40 10 40 6 0 10 65 10 175 0 110 -4 175
-10 175 -5 0 -10 18 -10 40 0 22 -4 40 -10 40 -5 0 -10 8 -10 18 0 10 -9 24
-20 32 -11 8 -20 22 -20 32 0 10 -4 18 -10 18 -5 0 -10 9 -10 20 0 11 -4 20
-10 20 -5 0 -10 8 -10 18 0 10 -9 24 -20 32 -11 8 -20 20 -20 28 0 16 -24 42
-40 42 -6 0 -29 18 -50 40 -21 22 -45 40 -52 40 -7 0 -20 9 -28 20 -8 11 -22
20 -32 20 -10 0 -18 5 -18 10 0 6 -13 10 -30 10 -16 0 -30 5 -30 10 0 6 -22
10 -50 10 -27 0 -50 5 -50 10 0 6 -13 10 -30 10 -16 0 -30 -4 -30 -10 0 -6
-38 -10 -95 -10 -57 0 -95 -4 -95 -10 0 -5 -13 -10 -30 -10 -16 0 -30 -4 -30
-10 0 -5 -13 -10 -30 -10 -16 0 -30 -4 -30 -10 0 -5 -7 -10 -16 -10 -8 0 -37
-22 -64 -50 -27 -27 -54 -50 -60 -50 -16 0 -160 -148 -160 -165 0 -8 -9 -15
-20 -15 -13 0 -20 7 -20 18 0 10 -9 24 -20 32 -11 8 -20 21 -20 30 0 9 -9 22
-20 30 -11 8 -20 20 -20 27 0 17 -106 123 -123 123 -7 0 -19 9 -27 20 -8 11
-22 20 -32 20 -10 0 -18 5 -18 10 0 6 -9 10 -20 10 -11 0 -20 5 -20 10 0 6 -9
10 -20 10 -11 0 -20 5 -20 10 0 6 -13 10 -30 10 -16 0 -30 5 -30 10 0 6 -72
10 -195 10 -123 0 -195 -4 -195 -10z m-60 -160 c0 -5 -4 -10 -10 -10 -5 0 -10
5 -10 10 0 6 5 10 10 10 6 0 10 -4 10 -10z m1500 -180 c0 -5 18 -10 40 -10 22
0 40 -4 40 -10 0 -5 14 -10 30 -10 17 0 30 -4 30 -10 0 -5 9 -10 20 -10 11 0
20 -4 20 -10 0 -5 7 -10 15 -10 25 0 65 -46 65 -75 0 -14 5 -25 10 -25 6 0 10
-20 10 -45 0 -25 5 -45 10 -45 6 0 10 -13 10 -30 0 -16 5 -30 10 -30 6 0 10
-33 10 -80 0 -47 -4 -80 -10 -80 -5 0 -10 -13 -10 -30 0 -16 -4 -30 -10 -30
-5 0 -10 -13 -10 -30 0 -16 -4 -30 -10 -30 -5 0 -10 -7 -10 -15 0 -20 -105
-125 -125 -125 -8 0 -15 -4 -15 -10 0 -5 -7 -10 -16 -10 -8 0 -33 -18 -54 -40
-21 -22 -46 -40 -54 -40 -9 0 -16 -4 -16 -10 0 -5 -6 -10 -13 -10 -7 0 -19 -9
-27 -20 -8 -11 -21 -20 -30 -20 -9 0 -22 -9 -30 -20 -8 -11 -21 -20 -28 -20
-8 0 -27 -13 -42 -30 -15 -16 -34 -30 -42 -30 -7 0 -20 -9 -28 -20 -8 -11 -21
-20 -28 -20 -8 0 -27 -13 -42 -30 -15 -16 -34 -30 -42 -30 -7 0 -20 -9 -28
-20 -8 -11 -21 -20 -28 -20 -8 0 -27 -13 -42 -30 -15 -16 -33 -30 -40 -30 -7
0 -25 -13 -40 -30 -15 -16 -33 -30 -40 -30 -7 0 -25 -13 -40 -30 -31 -34 -40
-37 -40 -15 0 17 -164 185 -180 185 -6 0 -38 27 -70 60 -32 33 -64 60 -70 60
-6 0 -29 18 -50 40 -21 22 -44 40 -50 40 -7 0 -25 14 -40 30 -15 17 -33 30
-40 30 -6 0 -29 18 -50 40 -21 22 -45 40 -52 40 -7 0 -20 9 -28 20 -8 11 -18
20 -23 20 -5 0 -22 14 -37 30 -15 17 -33 30 -39 30 -17 0 -241 228 -241 245 0
8 -4 15 -10 15 -5 0 -10 14 -10 30 0 17 -4 30 -10 30 -6 0 -10 27 -10 60 0 33
4 60 10 60 6 0 10 18 10 40 0 35 7 47 45 85 40 40 49 45 90 45 25 0 45 5 45
10 0 6 30 10 70 10 40 0 70 4 70 10 0 6 28 10 65 10 37 0 65 4 65 10 0 6 33
10 80 10 47 0 80 -4 80 -10 0 -5 9 -10 20 -10 11 0 20 -4 20 -10 0 -5 9 -10
20 -10 11 0 20 -4 20 -10 0 -5 7 -10 16 -10 19 0 44 -24 44 -42 0 -8 9 -20 20
-28 11 -8 20 -22 20 -32 0 -10 5 -18 10 -18 6 0 10 -16 10 -35 0 -19 5 -35 10
-35 6 0 10 -21 10 -46 0 -52 16 -74 54 -74 19 0 26 -5 26 -20 0 -11 5 -20 10
-20 6 0 10 -7 10 -15 0 -22 52 -73 58 -57 2 7 12 12 22 12 10 0 21 6 24 13 5
10 7 10 12 0 3 -7 12 -13 20 -13 17 0 84 64 84 81 0 6 14 24 30 39 17 15 30
35 30 44 0 9 5 16 10 16 6 0 10 14 10 30 0 17 5 30 10 30 6 0 10 7 10 15 0 8
5 15 10 15 6 0 10 7 10 15 0 19 104 125 123 125 7 0 19 9 27 20 8 11 22 20 32
20 10 0 18 5 18 10 0 6 18 10 40 10 22 0 40 5 40 10 0 6 25 10 55 10 30 0 55
-4 55 -10z"/>
</g>
</svg>
